# xmcd
#
# Track frame offsets: 
#        150
#        18900
#        40040
#        66393
#        87468
#        104930
#        121355
#        137343
#        155330
#
# Disc length: 2173 seconds
#
# Revision: 0
# Processed by: cddbd v1.5.2PL0 Copyright (c) Steve Scherf et al.
# Submitted via: ExactAudioCopy v1.0b3
#
DISCID=76087b09
DTITLE=Little Johnny Taylor - Ugly Man
DYEAR=1989
DGENRE=Blues
TTITLE0=Have You Ever Been to Kansas City
TTITLE1=Never Be Lonely And Blue
TTITLE2=LJT
TTITLE3=Ugly Man
TTITLE4=It's My Fault Darlin'
TTITLE5=I Enjoy You
TTITLE6=How Can a Broke Man Survive
TTITLE7=King Size Souvenir
TTITLE8=Have you Ever Been to Kansas City (Reprise)
EXTD=
EXTT0=
EXTT1=
EXTT2=
EXTT3=
EXTT4=
EXTT5=
EXTT6=
EXTT7=
EXTT8=
PLAYORDER=
